<svg width="30" height="32" viewBox="0 0 30 32" fill="none" xmlns="http://www.w3.org/2000/svg">
<path d="M23.6304 0.934576C23.4912 0.749117 23.2129 0.609619 22.9808 0.609619H7.01921C6.74086 0.609619 6.5088 0.748794 6.36963 0.934576L0.244663 8.72961C0.151772 8.86878 0.0592041 9.05457 0.0592041 9.24003V31.0016C0.0592041 31.4658 0.430446 31.8367 0.894239 31.8367H29.1054C29.5696 31.8367 29.9405 31.4654 29.9405 31.0016V9.24003C29.9405 9.05457 29.8942 8.86878 29.755 8.72961L23.6304 0.934576ZM15.835 2.28001H22.563L27.3421 8.35833H15.7885L15.7889 2.28001H15.835ZM7.43663 2.28001H14.1645V8.35833H2.61095L7.43663 2.28001ZM28.2702 30.12H1.72943V10.0752H28.2702V30.12ZM8.41103 21.768C8.41103 21.3039 8.78227 20.933 9.24607 20.933H20.7069C21.171 20.933 21.5419 21.3042 21.5419 21.768C21.5419 22.2321 21.1707 22.603 20.7069 22.603H9.24607C8.82854 22.6034 8.41103 22.2321 8.41103 21.768ZM8.41103 25.9905C8.41103 25.5264 8.78227 25.1555 9.24607 25.1555H20.7069C21.171 25.1555 21.5419 25.5267 21.5419 25.9905C21.5419 26.4546 21.1707 26.8255 20.7069 26.8255H9.24607C8.82854 26.8255 8.41103 26.4546 8.41103 25.9905Z" fill="url(#paint0_linear_0_95)"/>
<defs>
<linearGradient id="paint0_linear_0_95" x1="0.0592041" y1="0.609619" x2="20.578" y2="3.61468" gradientUnits="userSpaceOnUse">
<stop stop-color="#199916"/>
<stop offset="1" stop-color="#42A628"/>
</linearGradient>
</defs>
</svg>
