<svg width="35" height="35" viewBox="0 0 35 35" fill="none" xmlns="http://www.w3.org/2000/svg">
<path d="M0.997281 32.6017C0.571406 32.6017 0.192749 32.9804 0.192749 33.4062C0.192749 33.8321 0.571414 34.2108 0.997281 34.2108H26.2704C26.4596 34.2108 26.6491 34.116 26.8383 34.0216L34.4581 27.0644C34.7895 26.7805 34.8367 26.2598 34.5053 25.9284C34.2214 25.597 33.7007 25.5497 33.3693 25.8812L25.9862 32.6018H20.165L20.1653 30.756H26.318C26.5072 30.756 26.6967 30.6612 26.8859 30.5668L34.5057 23.6096C34.8371 23.3257 34.8843 22.8051 34.5529 22.4736C34.269 22.1422 33.7484 22.095 33.4169 22.4264L26.0338 29.147H20.2126V27.3012H26.3653C26.5545 27.3012 26.744 27.2065 26.9331 27.1121L34.553 20.1548C34.7897 19.9181 34.8844 19.587 34.7421 19.2555C34.6002 18.9241 34.3162 18.7349 33.9848 18.7349H8.71165C8.52248 18.7349 8.33298 18.8296 8.14382 18.9241L0.52401 25.8813C0.287302 26.118 0.192552 26.4491 0.334841 26.7806C0.476799 27.1121 0.760717 27.3012 1.09217 27.3012H8.33335V29.147H1.09217C0.666289 29.147 0.287632 29.5257 0.287632 29.9516C0.287632 30.3774 0.666298 30.7561 1.09217 30.7561H8.33335V32.6019L0.997281 32.6017ZM18.4613 32.6017H9.84762V27.301H18.4613V32.6017ZM31.7605 20.3437L25.9392 25.6444H20.5911L26.4123 20.3437H31.7605ZM23.9987 20.3437L18.1774 25.6444H10.9362L16.7575 20.3437H23.9987ZM3.07971 25.6444L8.90097 20.3437H14.3435L8.52226 25.6444H3.07971ZM16.6155 15.3269V13.907H14.675C14.2491 13.907 13.8705 13.5283 13.8705 13.1024C13.8705 12.6765 14.2491 12.2979 14.675 12.2979H18.4137H18.4609H18.5081C19.3599 12.2979 20.0228 11.6353 20.0228 10.7832C20.0228 9.93149 19.3602 9.26856 18.5081 9.26856H16.3785C14.6747 9.26856 13.2547 7.84863 13.2547 6.14482C13.2547 4.44101 14.6747 3.02109 16.3785 3.02109H16.6152V1.60116C16.6152 1.17529 16.9938 0.796631 17.4197 0.796631C17.8456 0.796631 18.2242 1.1753 18.2242 1.60116V3.02109H20.07C20.4959 3.02109 20.8746 3.39976 20.8746 3.82562C20.8746 4.2515 20.4959 4.63016 20.07 4.63016H16.3313C15.4796 4.63016 14.8166 5.29273 14.8166 6.14482C14.8166 6.99656 15.4792 7.65949 16.3313 7.65949H18.461C20.1648 7.65949 21.5847 9.07941 21.5847 10.7832C21.5847 12.487 20.1648 13.907 18.461 13.907H18.4138H18.3666H18.1774V15.3269C18.1774 15.7528 17.7987 16.1314 17.3729 16.1314C16.9466 16.1317 16.6155 15.7531 16.6155 15.3269H16.6155Z" fill="url(#paint0_linear_0_117)"/>
<defs>
<linearGradient id="paint0_linear_0_117" x1="0.192749" y1="0.796631" x2="23.8774" y2="4.55197" gradientUnits="userSpaceOnUse">
<stop stop-color="#199916"/>
<stop offset="1" stop-color="#42A628"/>
</linearGradient>
</defs>
</svg>
