<svg width="37" height="28" viewBox="0 0 37 28" fill="none" xmlns="http://www.w3.org/2000/svg">
<path d="M19 9.86238C19.2046 9.86238 19.3585 9.81131 19.5121 9.70881L23.4032 6.8417C23.6079 6.68813 23.7618 6.43206 23.7618 6.12492V1.10741C23.7618 0.646697 23.3522 0.237061 22.8914 0.237061H15.0578C14.5971 0.237061 14.1875 0.646706 14.1875 1.10741V6.12492C14.1875 6.38099 14.3411 6.68814 14.5461 6.8417L18.4372 9.70881C18.6415 9.81096 18.7954 9.86238 19 9.86238H19ZM15.9793 1.9774H22.0722V5.6638L19.0514 7.91669L16.0307 5.6638L16.0304 1.9774H15.9793ZM36.9713 7.9678V23.1742C36.9713 25.2735 35.2306 27.0142 33.1313 27.0142H4.81766C2.71837 27.0142 0.977661 25.2735 0.977661 23.1742V7.9678C0.977661 5.86851 2.71837 4.1278 4.81766 4.1278H11.7298C12.1906 4.1278 12.6002 4.53745 12.6002 4.99816C12.6002 5.45887 12.1906 5.86851 11.7298 5.86851H4.81766C3.69126 5.86851 2.71837 6.78993 2.71837 7.9678V23.1742C2.71837 24.3006 3.63979 25.2735 4.81766 25.2735H33.1313C34.2577 25.2735 35.2306 24.3521 35.2306 23.1742V7.9678C35.2306 6.8414 34.3091 5.86851 33.1313 5.86851H26.2191C25.7584 5.86851 25.3487 5.45886 25.3487 4.99816C25.3487 4.53744 25.7584 4.1278 26.2191 4.1278H33.1313C35.2817 4.1278 36.9713 5.86888 36.9713 7.9678ZM14.1361 11.1425C14.1361 9.40177 12.7025 7.96817 10.9618 7.96817C9.22105 7.96817 7.78745 9.40177 7.78745 11.1425C7.78745 12.8832 9.22105 14.3168 10.9618 14.3168C12.7025 14.3168 14.1361 12.9343 14.1361 11.1425ZM9.47677 11.1425C9.47677 10.3746 10.1425 9.70887 10.9104 9.70887C11.6782 9.70887 12.344 10.3746 12.344 11.1425C12.344 11.9103 11.6783 12.5761 10.9104 12.5761C10.1425 12.5761 9.47677 11.9614 9.47677 11.1425ZM10.9614 15.1361C12.8046 15.1361 15.9789 16.0575 16.5421 22.2018C16.5932 22.6625 16.235 23.1232 15.7228 23.1747H15.6203C15.1596 23.1747 14.801 22.8161 14.75 22.3554C14.3914 18.72 13.1114 16.8768 10.91 16.8768C8.70854 16.8768 7.42854 18.72 7.06996 22.3554C7.01889 22.8161 6.60924 23.1747 6.09707 23.1747C5.63635 23.1236 5.27779 22.7139 5.27779 22.2018C5.94386 16.0575 9.11852 15.1361 10.9614 15.1361H10.9614ZM31.3902 13.4975C31.3902 13.9582 30.9805 14.3678 30.5198 14.3678H20.1262C19.6655 14.3678 19.2559 13.9582 19.2559 13.4975C19.2559 13.0368 19.6655 12.6271 20.1262 12.6271H30.5198C30.9806 12.5761 31.3902 12.9857 31.3902 13.4975ZM30.4688 17.6961H20.0752C19.6145 17.6961 19.2048 17.2864 19.2048 16.8257C19.2048 16.365 19.6145 15.9554 20.0752 15.9554H30.4688C30.9295 15.9554 31.3391 16.365 31.3391 16.8257C31.3902 17.2864 30.9806 17.6961 30.4688 17.6961ZM25.2974 19.2322C25.7581 19.2322 26.1677 19.6418 26.1677 20.1025C26.1677 20.5632 25.7581 20.9729 25.2974 20.9729H20.1263C19.6656 20.9729 19.2559 20.5632 19.2559 20.1025C19.2559 19.6418 19.6656 19.2322 20.1263 19.2322H25.2974Z" fill="url(#paint0_linear_0_106)"/>
<defs>
<linearGradient id="paint0_linear_0_106" x1="0.977661" y1="0.237061" x2="25.1986" y2="5.22001" gradientUnits="userSpaceOnUse">
<stop stop-color="#199916"/>
<stop offset="1" stop-color="#42A628"/>
</linearGradient>
</defs>
</svg>
