<svg width="19" height="19" viewBox="0 0 19 19" fill="none" xmlns="http://www.w3.org/2000/svg">
<path d="M14.2578 5.5625V5.07031C14.2568 3.82914 13.7714 2.63737 12.9049 1.74873C12.0384 0.860091 10.8593 0.344777 9.61854 0.3125H9.38146C8.14071 0.344777 6.96157 0.860091 6.09507 1.74873C5.22856 2.63737 4.74316 3.82914 4.74219 5.07031V5.5625H1.13281C1.0893 5.5625 1.04757 5.57979 1.0168 5.61055C0.986035 5.64132 0.96875 5.68305 0.96875 5.72656V18.0312C0.96875 18.2053 1.03789 18.3722 1.16096 18.4953C1.28403 18.6184 1.45095 18.6875 1.625 18.6875H17.375C17.549 18.6875 17.716 18.6184 17.839 18.4953C17.9621 18.3722 18.0312 18.2053 18.0312 18.0312V5.72656C18.0312 5.68305 18.014 5.64132 17.9832 5.61055C17.9524 5.57979 17.9107 5.5625 17.8672 5.5625H14.2578ZM12.6172 5.5625H6.38281V5.11133C6.38281 3.39523 7.75314 1.97117 9.46924 1.95312C9.88105 1.9495 10.2895 2.02742 10.6711 2.18241C11.0526 2.3374 11.3997 2.56638 11.6924 2.85616C11.985 3.14594 12.2174 3.49077 12.3761 3.87079C12.5348 4.2508 12.6168 4.65848 12.6172 5.07031V5.5625Z" fill="#121212"/>
</svg>
