<svg width="16" height="16" viewBox="0 0 16 16" fill="none" xmlns="http://www.w3.org/2000/svg">
<path d="M7.2 11.2C7.09391 11.2 6.99217 11.2421 6.91716 11.3171C6.84214 11.3921 6.8 11.4939 6.8 11.6C6.8 11.7061 6.84214 11.8078 6.91716 11.8828C6.99217 11.9578 7.09391 12 7.2 12H8.8C8.90609 12 9.00783 11.9578 9.08284 11.8828C9.15786 11.8078 9.2 11.7061 9.2 11.6C9.2 11.4939 9.15786 11.3921 9.08284 11.3171C9.00783 11.2421 8.90609 11.2 8.8 11.2H7.2ZM5.6 1.59998C5.17565 1.59998 4.76869 1.76855 4.46863 2.0686C4.16857 2.36866 4 2.77563 4 3.19998V12.8C4 13.2243 4.16857 13.6313 4.46863 13.9313C4.76869 14.2314 5.17565 14.4 5.6 14.4H10.4C10.8243 14.4 11.2313 14.2314 11.5314 13.9313C11.8314 13.6313 12 13.2243 12 12.8V3.19998C12 2.77563 11.8314 2.36866 11.5314 2.0686C11.2313 1.76855 10.8243 1.59998 10.4 1.59998H5.6ZM4.8 3.19998C4.8 2.9878 4.88429 2.78432 5.03431 2.63429C5.18434 2.48426 5.38783 2.39998 5.6 2.39998H10.4C10.6122 2.39998 10.8157 2.48426 10.9657 2.63429C11.1157 2.78432 11.2 2.9878 11.2 3.19998V12.8C11.2 13.0121 11.1157 13.2156 10.9657 13.3657C10.8157 13.5157 10.6122 13.6 10.4 13.6H5.6C5.38783 13.6 5.18434 13.5157 5.03431 13.3657C4.88429 13.2156 4.8 13.0121 4.8 12.8V3.19998Z" fill="#828282"/>
</svg>
