<svg width="15" height="15" viewBox="0 0 15 15" fill="none" xmlns="http://www.w3.org/2000/svg">
<path d="M13.125 2.8125H1.875C1.62636 2.8125 1.3879 2.91127 1.21209 3.08709C1.03627 3.2629 0.9375 3.50136 0.9375 3.75V11.25C0.9375 11.4986 1.03627 11.7371 1.21209 11.9129C1.3879 12.0887 1.62636 12.1875 1.875 12.1875H13.125C13.3736 12.1875 13.6121 12.0887 13.7879 11.9129C13.9637 11.7371 14.0625 11.4986 14.0625 11.25V3.75C14.0625 3.50136 13.9637 3.2629 13.7879 3.08709C13.6121 2.91127 13.3736 2.8125 13.125 2.8125ZM12.0938 3.75L7.5 6.92812L2.90625 3.75H12.0938ZM1.875 11.25V4.17656L7.23281 7.88437C7.31128 7.93881 7.4045 7.96798 7.5 7.96798C7.5955 7.96798 7.68872 7.93881 7.76719 7.88437L13.125 4.17656V11.25H1.875Z" fill="#828282"/>
</svg>
