<svg width="108" height="30" viewBox="0 0 108 30" fill="none" xmlns="http://www.w3.org/2000/svg">
<path d="M0.48 23V0.989999H3.952V19.931H15.763V23H0.48ZM25.2529 23.31C23.9715 23.31 22.8245 23.093 21.8119 22.659C20.7992 22.2043 19.9209 21.5843 19.1769 20.799C18.4535 20.0137 17.8955 19.125 17.5029 18.133C17.1102 17.1203 16.9139 16.0457 16.9139 14.909C16.9139 13.7723 17.1102 12.6977 17.5029 11.685C17.8955 10.6723 18.4535 9.78367 19.1769 9.019C19.9209 8.23367 20.7992 7.624 21.8119 7.19C22.8452 6.73533 23.9922 6.508 25.2529 6.508C26.5135 6.508 27.6502 6.73533 28.6629 7.19C29.6962 7.624 30.5745 8.23367 31.2979 9.019C32.0419 9.78367 32.6102 10.6723 33.0029 11.685C33.3955 12.6977 33.5919 13.7723 33.5919 14.909C33.5919 16.0457 33.3955 17.1203 33.0029 18.133C32.6102 19.125 32.0419 20.0137 31.2979 20.799C30.5745 21.5843 29.6962 22.2043 28.6629 22.659C27.6502 23.093 26.5135 23.31 25.2529 23.31ZM20.4169 14.94C20.4169 15.9733 20.6339 16.9033 21.0679 17.73C21.5019 18.5567 22.0805 19.2077 22.8039 19.683C23.5272 20.1583 24.3435 20.396 25.2529 20.396C26.1415 20.396 26.9475 20.1583 27.6709 19.683C28.4149 19.187 29.0039 18.5257 29.4379 17.699C29.8719 16.8517 30.0889 15.9217 30.0889 14.909C30.0889 13.8757 29.8719 12.9457 29.4379 12.119C29.0039 11.2923 28.4149 10.6413 27.6709 10.166C26.9475 9.67 26.1415 9.422 25.2529 9.422C24.3435 9.422 23.5272 9.67 22.8039 10.166C22.0805 10.662 21.5019 11.3233 21.0679 12.15C20.6339 12.956 20.4169 13.886 20.4169 14.94ZM43.0333 23.155C41.938 23.155 40.9356 22.938 40.0263 22.504C39.117 22.0493 38.3316 21.4397 37.6703 20.675C37.0296 19.9103 36.5233 19.032 36.1513 18.04C35.8 17.048 35.6243 16.0043 35.6243 14.909C35.6243 13.7517 35.8103 12.6667 36.1823 11.654C36.5543 10.6413 37.071 9.75267 37.7323 8.988C38.4143 8.20267 39.21 7.593 40.1193 7.159C41.0286 6.725 42.0413 6.508 43.1573 6.508C44.4593 6.508 45.596 6.818 46.5673 7.438C47.5593 8.058 48.3756 8.864 49.0163 9.856V6.787H52.0233V22.535C52.0233 24.1057 51.641 25.4387 50.8763 26.534C50.1323 27.6293 49.1093 28.4663 47.8073 29.045C46.5053 29.6237 45.038 29.913 43.4053 29.913C41.6073 29.913 40.1193 29.603 38.9413 28.983C37.7633 28.363 36.761 27.5157 35.9343 26.441L37.8563 24.643C38.4763 25.511 39.272 26.1723 40.2433 26.627C41.2353 27.0817 42.2893 27.309 43.4053 27.309C44.3353 27.309 45.193 27.1333 45.9783 26.782C46.7843 26.4513 47.425 25.9243 47.9003 25.201C48.3756 24.4983 48.6133 23.6097 48.6133 22.535V20.055C48.0346 21.0263 47.239 21.791 46.2263 22.349C45.2136 22.8863 44.1493 23.155 43.0333 23.155ZM44.1493 20.396C44.666 20.396 45.162 20.3133 45.6373 20.148C46.1126 19.962 46.5466 19.7243 46.9393 19.435C47.3526 19.125 47.704 18.784 47.9933 18.412C48.2826 18.0193 48.4893 17.606 48.6133 17.172V12.925C48.3446 12.2223 47.9623 11.6127 47.4663 11.096C46.9703 10.5587 46.4123 10.1453 45.7923 9.856C45.1723 9.56667 44.542 9.422 43.9013 9.422C43.1573 9.422 42.4856 9.58733 41.8863 9.918C41.3076 10.228 40.8116 10.6517 40.3983 11.189C39.985 11.7057 39.6646 12.2947 39.4373 12.956C39.21 13.6173 39.0963 14.2993 39.0963 15.002C39.0963 15.746 39.2203 16.4383 39.4683 17.079C39.737 17.7197 40.0986 18.2983 40.5533 18.815C41.008 19.311 41.5453 19.7037 42.1653 19.993C42.7853 20.2617 43.4466 20.396 44.1493 20.396ZM63.3974 23.31C62.1161 23.31 60.9691 23.093 59.9564 22.659C58.9437 22.2043 58.0654 21.5843 57.3214 20.799C56.5981 20.0137 56.0401 19.125 55.6474 18.133C55.2547 17.1203 55.0584 16.0457 55.0584 14.909C55.0584 13.7723 55.2547 12.6977 55.6474 11.685C56.0401 10.6723 56.5981 9.78367 57.3214 9.019C58.0654 8.23367 58.9437 7.624 59.9564 7.19C60.9897 6.73533 62.1367 6.508 63.3974 6.508C64.6581 6.508 65.7947 6.73533 66.8074 7.19C67.8407 7.624 68.7191 8.23367 69.4424 9.019C70.1864 9.78367 70.7547 10.6723 71.1474 11.685C71.5401 12.6977 71.7364 13.7723 71.7364 14.909C71.7364 16.0457 71.5401 17.1203 71.1474 18.133C70.7547 19.125 70.1864 20.0137 69.4424 20.799C68.7191 21.5843 67.8407 22.2043 66.8074 22.659C65.7947 23.093 64.6581 23.31 63.3974 23.31ZM58.5614 14.94C58.5614 15.9733 58.7784 16.9033 59.2124 17.73C59.6464 18.5567 60.2251 19.2077 60.9484 19.683C61.6717 20.1583 62.4881 20.396 63.3974 20.396C64.2861 20.396 65.0921 20.1583 65.8154 19.683C66.5594 19.187 67.1484 18.5257 67.5824 17.699C68.0164 16.8517 68.2334 15.9217 68.2334 14.909C68.2334 13.8757 68.0164 12.9457 67.5824 12.119C67.1484 11.2923 66.5594 10.6413 65.8154 10.166C65.0921 9.67 64.2861 9.422 63.3974 9.422C62.4881 9.422 61.6717 9.67 60.9484 10.166C60.2251 10.662 59.6464 11.3233 59.2124 12.15C58.7784 12.956 58.5614 13.886 58.5614 14.94Z" fill="#178C14"/>
<path d="M82.7898 22.225C82.6245 22.287 82.3662 22.4007 82.0148 22.566C81.6635 22.7313 81.2398 22.876 80.7438 23C80.2478 23.124 79.7105 23.186 79.1318 23.186C78.5325 23.186 77.9642 23.0723 77.4268 22.845C76.9102 22.6177 76.4968 22.2767 76.1868 21.822C75.8768 21.3467 75.7218 20.768 75.7218 20.086V8.523H73.4898V6.849H75.7218V1.393H77.8298V6.849H81.5498V8.523H77.8298V19.497C77.8712 20.0757 78.0778 20.5097 78.4498 20.799C78.8425 21.0883 79.2868 21.233 79.7828 21.233C80.3615 21.233 80.8885 21.14 81.3638 20.954C81.8392 20.7473 82.1285 20.6027 82.2318 20.52L82.7898 22.225ZM85.4236 23V6.849H87.5316V23H85.4236ZM85.4236 3.47V0.369999H87.5316V3.47H85.4236ZM100.421 23.31C99.0773 23.31 97.8683 22.9587 96.7936 22.256C95.7396 21.5533 94.9026 20.6853 94.2826 19.652V29.603H92.1746V6.849H94.0656V9.98C94.7063 8.96733 95.5639 8.151 96.6386 7.531C97.7133 6.89033 98.8603 6.57 100.08 6.57C101.196 6.57 102.219 6.80767 103.149 7.283C104.079 7.73767 104.885 8.35767 105.567 9.143C106.249 9.92833 106.776 10.8273 107.148 11.84C107.54 12.832 107.737 13.8653 107.737 14.94C107.737 16.4487 107.427 17.8437 106.807 19.125C106.207 20.3857 105.36 21.3983 104.265 22.163C103.169 22.9277 101.888 23.31 100.421 23.31ZM99.8316 21.45C100.72 21.45 101.516 21.2743 102.219 20.923C102.921 20.551 103.521 20.055 104.017 19.435C104.533 18.815 104.926 18.1227 105.195 17.358C105.463 16.5727 105.598 15.7667 105.598 14.94C105.598 14.072 105.443 13.2453 105.133 12.46C104.843 11.6747 104.42 10.9823 103.862 10.383C103.304 9.78367 102.663 9.30833 101.94 8.957C101.216 8.60567 100.431 8.43 99.5836 8.43C99.0463 8.43 98.4883 8.53333 97.9096 8.74C97.3309 8.94667 96.7729 9.24633 96.2356 9.639C95.7189 10.011 95.2849 10.4347 94.9336 10.91C94.5823 11.3853 94.3653 11.8917 94.2826 12.429V17.389C94.6133 18.1537 95.0576 18.846 95.6156 19.466C96.1736 20.0653 96.8143 20.551 97.5376 20.923C98.2816 21.2743 99.0463 21.45 99.8316 21.45Z" fill="#121212"/>
</svg>
