<svg width="13" height="15" viewBox="0 0 13 15" fill="none" xmlns="http://www.w3.org/2000/svg">
<path d="M2.66699 14.5H4.33366V12H9.33366V10.3334H4.33366V8.66671H8.08366C10.3812 8.66671 12.2503 6.79754 12.2503 4.50004C12.2503 2.20254 10.3812 0.333374 8.08366 0.333374H3.50033C3.27931 0.333374 3.06735 0.421172 2.91107 0.577452C2.75479 0.733732 2.66699 0.945694 2.66699 1.16671V7.00004H0.166992V8.66671H2.66699V10.3334H0.166992V12H2.66699V14.5ZM4.33366 2.00004H8.08366C9.46199 2.00004 10.5837 3.12171 10.5837 4.50004C10.5837 5.87837 9.46199 7.00004 8.08366 7.00004H4.33366V2.00004Z" fill="black"/>
</svg>
