<svg width="23" height="23" viewBox="0 0 23 23" fill="none" xmlns="http://www.w3.org/2000/svg">
<g clip-path="url(#clip0_1_424)">
<path d="M7.23557 20.8438C15.9127 20.8438 20.66 13.6531 20.66 7.41931C20.66 7.21716 20.6555 7.01052 20.6465 6.80837C21.57 6.14051 22.367 5.31327 23 4.36552C22.1399 4.74819 21.2267 4.9981 20.2917 5.10673C21.2762 4.51657 22.0134 3.58944 22.3666 2.49722C21.4404 3.04615 20.4274 3.43337 19.3712 3.64228C18.6596 2.88611 17.7186 2.38543 16.6939 2.21766C15.6691 2.04989 14.6176 2.22437 13.702 2.71412C12.7864 3.20388 12.0576 3.98162 11.6283 4.92712C11.199 5.87262 11.0931 6.9332 11.3271 7.9449C9.45156 7.85078 7.61677 7.36358 5.94165 6.51487C4.26653 5.66617 2.78846 4.47491 1.60326 3.01832C1.00088 4.05689 0.816554 5.28586 1.08774 6.45545C1.35892 7.62504 2.06527 8.6475 3.06322 9.31501C2.31402 9.29123 1.58123 9.08951 0.925391 8.72654V8.78494C0.924719 9.87484 1.30151 10.9313 1.99171 11.7748C2.68192 12.6184 3.64293 13.1968 4.71141 13.4119C4.01739 13.6018 3.28898 13.6294 2.58256 13.4927C2.88406 14.4301 3.47067 15.2499 4.26053 15.8378C5.05039 16.4256 6.00407 16.7523 6.9885 16.772C5.31724 18.0848 3.25275 18.7969 1.12754 18.7935C0.75065 18.793 0.374132 18.7698 0 18.7243C2.15899 20.1094 4.67047 20.8451 7.23557 20.8438Z" fill="#121212"/>
</g>
<defs>
<clipPath id="clip0_1_424">
<rect width="23" height="23" fill="white"/>
</clipPath>
</defs>
</svg>
