<svg width="17" height="17" viewBox="0 0 17 17" fill="none" xmlns="http://www.w3.org/2000/svg">
<path d="M8.5 0C3.80558 0 0 3.80558 0 8.5C0 13.1944 3.80558 17 8.5 17C13.1944 17 17 13.1944 17 8.5C17 3.80558 13.1944 0 8.5 0ZM5.44531 3.37634C5.62044 3.36601 5.77874 3.47069 5.89875 3.65649L7.06085 5.86034C7.18321 6.12149 7.11368 6.40111 6.93116 6.5877L6.39887 7.11998C6.36602 7.165 6.3444 7.21571 6.34388 7.27147C6.548 8.06161 7.1672 8.79046 7.71352 9.29168C8.25982 9.79289 8.84698 10.4715 9.60919 10.6323C9.7034 10.6585 9.81882 10.668 9.88624 10.6053L10.5046 9.97547C10.7181 9.81367 11.0269 9.73526 11.2548 9.86757H11.2652L13.3622 11.1054C13.67 11.2984 13.7019 11.6713 13.4815 11.8981L12.0372 13.3311C11.8239 13.5498 11.5405 13.6233 11.2652 13.6237C10.0476 13.5872 8.89715 12.9896 7.95218 12.3754C6.40107 11.247 4.97827 9.84745 4.08503 8.15656C3.74245 7.44752 3.34002 6.54283 3.37842 5.75143C3.38185 5.4537 3.4624 5.16202 3.67207 4.97012L5.11641 3.52579C5.22892 3.43005 5.34022 3.38255 5.44531 3.37634Z" fill="#121212"/>
</svg>
